<svg width="48" height="48" viewBox="0 0 48 48" fill="none" xmlns="http://www.w3.org/2000/svg">
<path d="M31 38.3915C28.8856 39.4219 26.5103 40 24 40C15.1634 40 8 32.8366 8 24C8 15.1634 15.1634 8 24 8C32.8366 8 40 15.1634 40 24C40 26.3143 39.5086 28.5138 38.6246 30.5" stroke="#222222" stroke-width="3" stroke-linecap="round"/>
<rect x="19.1211" y="14" width="9" height="3" rx="1.5" transform="rotate(45 19.1211 14)" fill="#222222"/>
<rect width="9" height="3" rx="1.5" transform="matrix(-0.707107 0.707107 0.707107 0.707107 27.9502 14)" fill="#222222"/>
<path d="M45.2221 26.8148C44.8233 26.0886 43.9114 25.8233 43.1852 26.2221L37.9262 29.1104C37.2001 29.5092 36.9347 30.4212 37.3335 31.1473C37.7323 31.8734 38.6443 32.1387 39.3704 31.74L44.6294 28.8516C45.3555 28.4528 45.6209 27.5409 45.2221 26.8148Z" fill="#222222"/>
<path d="M35.3517 23.6509C36.0981 23.2914 36.9945 23.6051 37.354 24.3514L39.9575 29.7571C40.317 30.5035 40.0033 31.4 39.257 31.7594C38.5106 32.1189 37.6141 31.8053 37.2547 31.0589L34.6511 25.6532C34.2917 24.9068 34.6053 24.0103 35.3517 23.6509Z" fill="#222222"/>
<rect width="13" height="3" rx="1.5" transform="matrix(1 0 0 -1 17 23)" fill="#222222"/>
<rect width="13" height="3" rx="1.5" transform="matrix(0 -1 -1 0 25 34)" fill="#222222"/>
<rect width="13" height="3" rx="1.5" transform="matrix(1 0 0 -1 17 28)" fill="#222222"/>
</svg>
