<svg width="48" height="48" viewBox="0 0 48 48" fill="none" xmlns="http://www.w3.org/2000/svg">
<g id="Frame 38">
<path id="Rectangle 102" d="M9 9L8.4715 18.5131C8.21544 23.1221 11.8838 27 16.5 27V27C21.1162 27 24.7846 23.1221 24.5285 18.5131L24 9" stroke="#222222" stroke-width="3" stroke-linecap="round"/>
<rect id="Rectangle 100" x="15" y="26" width="3" height="15" rx="1.5" fill="#222222"/>
<path id="Vector 7" d="M40.4997 30V11C30.8997 14.6 30.4997 25.1667 31.4997 30H40.4997Z" fill="#79F138"/>
<rect id="Rectangle 104" x="39" y="8" width="3" height="33" rx="1.5" fill="#222222"/>
<path id="Rectangle 99" d="M40.5 9.5V9.5C34.6203 12.904 31 19.1832 31 25.9773V29.8979C31 29.9543 31.0457 30 31.1021 30H40" stroke="#222222" stroke-width="3" stroke-linecap="square"/>
<rect id="Rectangle 103" x="15" y="8" width="3" height="13" rx="1.5" fill="#222222"/>
</g>
</svg>
