<svg width="86" height="98" viewBox="0 0 86 98" fill="none" xmlns="http://www.w3.org/2000/svg">
<g id="Group 81">
<g id="Group 80">
<path id="Vector 15" d="M65.1811 43.5956L51 31.5L60.8862 40.4447C61.2793 40.8003 61.5146 41.2885 61.5414 41.8178C62.2202 55.2531 63.5 81.2568 63.5 84C63.5 86.2271 63.0782 87.3365 62.7379 87.7811C62.6065 87.9528 62.3909 88.0154 62.1768 88.0456L25.0822 93.2769C24.1569 93.4074 23.4702 94.1677 23.2771 95.0819C23.2494 95.2128 23.2206 95.3366 23.191 95.4546C22.8684 96.7402 23.8043 97.8317 25.1188 97.6621L67.5032 92.1931C68.3891 92.0788 69.0941 91.4005 69.1903 90.5124C70.3206 80.0687 68.9215 58.3375 68.2845 49.6776C68.1104 47.3106 66.9869 45.1359 65.1811 43.5956Z" fill="#222222"/>
<path id="Vector 13" d="M42 28.5C43.4637 29.9637 45.331 34.6993 45.6175 40.2134C45.7056 41.9105 47.7982 43.2935 49.4204 42.7876C52.1761 41.9282 56.2965 41.2195 61.5 42" stroke="#222222" stroke-width="2" stroke-linecap="round"/>
<path id="Vector 12" d="M14 31.5L42.0796 27.8768C43.9861 27.6308 45.9336 27.9181 47.5851 28.9019C51.2288 31.0723 56.5283 34.9469 60.5898 40.0863C61.5559 41.3088 62.0682 42.8092 62.1863 44.3629C62.7587 51.8953 64.3832 75.4902 63.1903 86.5124C63.0941 87.4005 62.3891 88.0788 61.5032 88.1931L19.1188 93.6621C17.8043 93.8317 16.6869 92.7009 16.8351 91.3837C17.5836 84.7303 18.2393 72.8924 16.5 63.5" stroke="#222222" stroke-width="2" stroke-linecap="round"/>
<path id="Vector 14" d="M60 29C64 21.3334 80.5 6.5 84 14.5001C87.9375 23.5 68.1246 23.7109 74 10.0003C75.5 6.5 78 3 81 1" stroke="black" stroke-width="2" stroke-linecap="round"/>
<path id="Vector 16" d="M28 72.5L51 69" stroke="black" stroke-width="2" stroke-linecap="round"/>
<path id="Vector 17" d="M27 60L42 58" stroke="black" stroke-width="2" stroke-linecap="round"/>
</g>
<path id="Vector 18" d="M2.23336 46.1423C6.12567 43.3022 7.18642 41.0713 7.69366 37.1712C7.81991 36.2005 9.15182 35.8836 9.71905 36.6814C13.2533 41.652 15.6443 41.5187 19.6034 43.6771C20.2561 44.033 20.247 44.9528 19.6341 45.3734C14.4865 48.9064 14.6511 51.8519 13.283 54.999C12.9794 55.6974 12.0422 55.6815 11.6536 55.0265C7.76211 48.4671 6.79067 50.3635 2.27891 47.7926C1.65904 47.4394 1.65702 46.5628 2.23336 46.1423Z" stroke="black" stroke-width="2" stroke-linecap="round"/>
</g>
</svg>
