<svg width="48" height="48" viewBox="0 0 48 48" fill="none" xmlns="http://www.w3.org/2000/svg">
<g id="Frame 19">
<path id="Rectangle 56" d="M12.5076 11.6243C12.215 10.688 12.6447 9.67765 13.5221 9.23893L13.9751 9.01246C16.5088 7.74559 19.4988 7.74942 22.0326 9.0163V9.0163C23.3378 9.66889 24.7142 10.1786 26.1299 10.5325L27.3321 10.833C29.0837 11.2709 30.9163 11.2709 32.6679 10.833L34.1689 10.4578C35.1969 10.2008 36.2469 10.7901 36.563 11.8015L40.4008 24.0827C40.7313 25.1402 40.139 26.2649 39.08 26.5908L38.3231 26.8237C35.832 27.5902 33.168 27.5902 30.6769 26.8237L28 26L25.2339 24.9942C23.4679 24.352 21.5321 24.352 19.7661 24.9942L18.9679 25.2844C17.896 25.6742 16.7156 25.09 16.3754 24.0014L12.5076 11.6243Z" stroke="black" stroke-width="3"/>
<rect id="Rectangle 57" x="5" y="8.87695" width="3" height="32" rx="1.5" transform="rotate(-17 5 8.87695)" fill="black"/>
</g>
</svg>
