<svg width="48" height="48" viewBox="0 0 48 48" fill="none" xmlns="http://www.w3.org/2000/svg">
<g id="Frame 20">
<path id="Rectangle 48" d="M16 15C16 11.134 19.134 8 23 8H24C27.866 8 31 11.134 31 15V15C31 18.866 27.866 22 24 22H23C19.134 22 16 18.866 16 15V15Z" stroke="black" stroke-width="3"/>
<path id="Rectangle 49" d="M8 38.25C8 32.0368 13.0368 27 19.25 27H28.75C34.9632 27 40 32.0368 40 38.25V38.25C40 38.6642 39.6642 39 39.25 39H8.75C8.33579 39 8 38.6642 8 38.25V38.25Z" stroke="black" stroke-width="3"/>
</g>
</svg>
