<svg t="1750298920561" class="icon" viewBox="0 0 1024 1024" version="1.1" xmlns="http://www.w3.org/2000/svg" p-id="1642" width="256" height="256"><path d="M597.333333 176.384L886.528 405.333333 597.333333 634.282667v-142.976c-32.938667 1.365333-85.333333 4.565333-85.333333 4.565333-95.786667 11.989333-183.168 44.373333-258.133333 95.274667 25.813333-75.861333 61.397333-130.176 99.157333-168.874667A336.213333 336.213333 0 0 1 512 330.709333s52.949333-6.4 85.333333-9.301333V176.384z m-85.333333 405.589333v52.309334c0 71.338667 82.346667 111.189333 138.282667 66.901333l289.194666-228.949333a85.333333 85.333333 0 0 0 0-133.802667l-289.194666-228.949333C594.389333 65.194667 512 105.045333 512 176.384v66.858667c-150.485333 30.336-321.536 147.413333-370.346667 449.28A1142.016 1142.016 0 0 0 128 874.666667a522.154667 522.154667 0 0 1 94.293333-144.554667C297.6 649.258667 396.8 598.528 512 581.973333z" fill="#14101C" p-id="1643"></path></svg>