<svg width="20" height="20" viewBox="0 0 20 20" fill="none" xmlns="http://www.w3.org/2000/svg">
<path d="M10 2.5C10.3516 2.5 10.6378 2.7846 10.6378 3.13783C10.6378 3.49107 10.3532 3.77567 10 3.77567C6.56138 3.77567 3.774 6.56306 3.774 10.0017C3.774 13.4403 6.56138 16.226 10 16.226C13.4386 16.226 16.226 13.4386 16.226 10C16.226 9.64844 16.5106 9.36216 16.8638 9.36216C17.2171 9.36216 17.5 9.64844 17.5 10C17.5 14.1417 14.1417 17.5 10 17.5C5.85826 17.5 2.5 14.1417 2.5 10C2.5 5.85826 5.85826 2.5 10 2.5ZM13.8605 5.68917C13.6228 5.44308 13.6261 5.05301 13.8689 4.81194C14.1116 4.5692 14.5017 4.56752 14.7511 4.80859L15.8493 5.90681C16.1808 6.23828 16.1808 6.774 15.8493 7.10547L14.7511 8.20368C14.5067 8.4481 14.1099 8.4481 13.8655 8.20368C13.6211 7.95926 13.6211 7.5625 13.8655 7.31808L14.0513 7.13225H13.2427C11.0446 7.13225 10.298 8.06808 10.298 10.899C10.298 11.2455 10.0184 11.5251 9.67188 11.5251C9.32534 11.5251 9.04576 11.2455 9.04576 10.899C9.04576 7.39844 10.3231 5.88002 13.2427 5.88002H14.0513L13.8605 5.68917Z" fill="#888888"/>
</svg>
