<svg width="16" height="16" viewBox="0 0 16 16" fill="none" xmlns="http://www.w3.org/2000/svg">
<g clip-path="url(#clip0_28_7761)">
<path d="M7.98916 15.9783C3.57702 15.9783 0 12.4014 0 7.98916C0 3.57702 3.57702 0 7.98916 0C12.4014 0 15.9783 3.57686 15.9783 7.98916C15.9783 12.4014 12.4014 15.9783 7.98916 15.9783ZM7.98916 1.08478C4.17605 1.08478 1.08478 4.17605 1.08478 7.98916C1.08478 11.8024 4.17589 14.8935 7.98916 14.8935C11.8024 14.8935 14.8935 11.8024 14.8935 7.98916C14.8935 4.17605 11.8023 1.08478 7.98916 1.08478ZM7.28324 12.1031C6.59761 12.1031 6.59761 11.4175 6.59761 11.4175L7.28324 7.98916C7.28324 7.98916 7.28324 7.30352 6.59761 7.30352C6.59761 7.30352 5.91197 7.30352 5.91197 6.61789H7.96887C7.96887 6.61789 8.6545 6.61789 8.6545 7.30352C8.6545 7.98916 7.96887 10.0461 7.96887 10.7318C7.96887 11.4175 8.6545 11.4175 8.6545 11.4175H9.34029C9.34013 11.4175 9.34013 12.1031 7.28324 12.1031ZM8.6545 5.24647C8.2758 5.24647 7.96887 4.93939 7.96887 4.56084C7.96887 4.18214 8.27595 3.87505 8.6545 3.87505C9.03321 3.87505 9.34029 4.18214 9.34029 4.56084C9.34029 4.93954 9.03321 5.24647 8.6545 5.24647Z" fill="#FE4CD3"/>
</g>
<defs>
<clipPath id="clip0_28_7761">
<rect width="16" height="16" fill="white"/>
</clipPath>
</defs>
</svg>
