<svg width="35" height="35" viewBox="0 0 35 35" fill="none" xmlns="http://www.w3.org/2000/svg">
<g id="Frame" clip-path="url(#clip0_50_7798)">
<path id="Vector" d="M17.4763 34.9526C7.82473 34.9526 0 27.1282 0 17.4763C0 7.82473 7.82473 0 17.4763 0C27.1282 0 34.9526 7.82439 34.9526 17.4763C34.9526 27.1282 27.1282 34.9526 17.4763 34.9526ZM17.4763 2.37295C9.13511 2.37295 2.37295 9.13511 2.37295 17.4763C2.37295 25.8178 9.13477 32.5796 17.4763 32.5796C25.8178 32.5796 32.5796 25.8178 32.5796 17.4763C32.5796 9.13511 25.8174 2.37295 17.4763 2.37295ZM15.9321 26.4755C14.4323 26.4755 14.4323 24.9757 14.4323 24.9757L15.9321 17.4763C15.9321 17.4763 15.9321 15.9765 14.4323 15.9765C14.4323 15.9765 12.9324 15.9765 12.9324 14.4766H17.4319C17.4319 14.4766 18.9317 14.4766 18.9317 15.9765C18.9317 17.4763 17.4319 21.9757 17.4319 23.4759C17.4319 24.9757 18.9317 24.9757 18.9317 24.9757H20.4319C20.4315 24.9757 20.4315 26.4755 15.9321 26.4755ZM18.9317 11.4767C18.1033 11.4767 17.4319 10.8049 17.4319 9.97684C17.4319 9.14842 18.1036 8.47668 18.9317 8.47668C19.7601 8.47668 20.4319 9.14842 20.4319 9.97684C20.4319 10.8053 19.7601 11.4767 18.9317 11.4767Z" fill="#222222"/>
</g>
<defs>
<clipPath id="clip0_50_7798">
<rect width="35" height="35" fill="white"/>
</clipPath>
</defs>
</svg>
