<svg width="32" height="32" viewBox="0 0 32 32" fill="none" xmlns="http://www.w3.org/2000/svg">
<path d="M5.6875 16.4016H12.5435V27.4608H5.6875V16.4016ZM19.7515 16.4016H26.6075V27.4608H19.7515V16.4016Z" fill="white"/>
<path d="M28.81 28.4144H19.3604V17.12H26.2548V15.9808C26.2212 13.3 25.1327 10.7405 23.2252 8.85666C21.3176 6.97285 18.7446 5.9165 16.0636 5.9165C13.3827 5.9165 10.8096 6.97285 8.90208 8.85666C6.99451 10.7405 5.90601 13.3 5.87242 15.9808V17.12H12.8836V28.4144H3.30762V15.9808C3.34522 12.6237 4.70521 9.41689 7.09243 7.05626C9.47966 4.69562 12.7015 3.37164 16.0588 3.37164C19.4161 3.37164 22.638 4.69562 25.0252 7.05626C27.4124 9.41689 28.7724 12.6237 28.81 15.9808V28.4144ZM21.9156 25.8544H26.25V19.68H21.9204L21.9156 25.8544ZM5.86762 25.8544H10.3236V19.68H5.86762V25.8544Z" fill="#222222"/>
</svg>
