<svg width="35" height="35" viewBox="0 0 35 35" fill="none" xmlns="http://www.w3.org/2000/svg">
<g id="Frame" clip-path="url(#clip0_50_7789)">
<path id="Vector" d="M33.1243 30.6137L31.188 32.6112C29.7155 34.1287 27.6668 34.9987 25.5655 34.9987C24.668 34.9987 23.7818 34.8437 22.9343 34.5387C12.4443 30.7574 4.13428 22.0687 0.705532 11.2949C-0.324468 8.05741 0.768032 4.49491 3.42428 2.43241L5.11678 1.11741C6.05678 0.386157 7.18178 -0.00134277 8.36928 -0.00134277C10.3893 -0.00134277 12.2193 1.13741 13.1443 2.96991L16.0068 8.63616C16.278 9.17491 16.4218 9.77741 16.4218 10.3812C16.4218 11.3412 16.0705 12.2587 15.433 12.9674L14.8368 13.6274C14.2443 14.2837 14.1155 15.2549 14.5168 16.0462C15.4943 17.9762 17.013 19.5224 18.9093 20.5174C19.673 20.9199 20.6555 20.7837 21.2855 20.1924L21.9355 19.5874C23.0643 18.5287 24.8255 18.2849 26.1893 18.9999L31.7543 21.9124C33.5555 22.8562 34.6755 24.7187 34.6755 26.7762C34.6755 28.2199 34.1255 29.5837 33.1243 30.6137ZM32.1755 26.2499C32.1755 24.4512 24.6755 21.2499 24.6755 21.2499C23.623 20.8649 22.1755 22.4999 22.1755 22.4999C19.568 24.4312 17.7318 22.9662 17.1755 22.4999C15.548 21.1387 13.3355 18.1962 12.1755 16.2499C11.308 14.7912 11.6793 13.0624 12.1755 12.4999C12.1755 12.4999 13.8555 11.0499 13.4255 9.99991C12.1143 6.74616 10.068 1.92741 8.42553 2.49991C7.00053 2.96991 1.03303 4.94866 3.73178 12.1812C8.51928 25.0012 18.483 30.1624 24.548 32.4987C28.7768 32.8099 32.5118 27.4712 32.1755 26.2499Z" fill="#272636"/>
</g>
<defs>
<clipPath id="clip0_50_7789">
<rect width="35" height="35" fill="white"/>
</clipPath>
</defs>
</svg>
