<svg width="35" height="35" viewBox="0 0 35 35" fill="none" xmlns="http://www.w3.org/2000/svg">
<g id="Frame">
<path id="Vector" d="M22.75 12.6555C23.475 12.6555 24.0625 13.243 24.0625 13.968C24.0625 14.6929 23.475 15.2805 22.75 15.2805H12.25C11.525 15.2805 10.9375 14.6929 10.9375 13.968C10.9375 13.243 11.525 12.6555 12.25 12.6555H22.75ZM22.75 19.6555C23.475 19.6555 24.0625 20.243 24.0625 20.968C24.0625 21.6929 23.475 22.2805 22.75 22.2805H12.25C11.525 22.2805 10.9375 21.6926 10.9375 20.968C10.9375 20.243 11.525 19.6555 12.25 19.6555H22.75ZM1.3125 14.4055C0.587549 14.4055 0 13.8179 0 13.093V6.96796C0 4.31014 2.15469 2.15546 4.8125 2.15546H30.1875C32.8453 2.15546 35 4.31014 35 6.96796V13.093C35 13.8179 34.4124 14.4055 33.6875 14.4055C31.9963 14.4055 30.625 15.7764 30.625 17.468C30.625 19.1592 31.9963 20.5301 33.6875 20.5301C34.4124 20.5301 35 21.118 35 21.8426V27.9676C35 30.6254 32.8453 32.7801 30.1875 32.7801H4.8125C2.15469 32.7801 0 30.6254 0 27.9676V21.8426C0 21.1177 0.587549 20.5301 1.3125 20.5301C3.00371 20.5301 4.37466 19.1592 4.37466 17.468C4.375 15.7767 3.00371 14.4055 1.3125 14.4055ZM6.91865 17.4683C6.91865 20.1784 5.0374 22.4496 2.50947 23.0464V28.0496C2.50947 28.6345 2.74189 29.195 3.15513 29.6086C3.56865 30.0219 4.12938 30.2542 4.71406 30.2542H30.2859C30.8708 30.2542 31.4313 30.0218 31.8445 29.6086C32.0493 29.4039 32.2117 29.1609 32.3225 28.8934C32.4333 28.6259 32.4903 28.3392 32.4902 28.0496V23.0461C29.9626 22.4493 28.0813 20.1781 28.0813 17.468C28.0813 14.7575 29.9626 12.4866 32.4902 11.8898V6.88661C32.4902 6.3018 32.2581 5.74125 31.8445 5.32767C31.4311 4.91434 30.8705 4.6821 30.2859 4.68202H4.71406C4.12925 4.68202 3.5687 4.91444 3.15513 5.32767C2.74178 5.7412 2.50955 6.30193 2.50947 6.88661V11.8898C5.03706 12.4869 6.91865 14.7578 6.91865 17.4683Z" fill="#222222"/>
</g>
</svg>
