<svg width="35" height="35" viewBox="0 0 35 35" fill="none" xmlns="http://www.w3.org/2000/svg">
<g id="Frame">
<path id="Vector" d="M18.7247 28.2783H22.8248C23.0543 28.2783 23.2405 28.0921 23.2405 27.8626V27.8482L23.1144 24.1721C23.1071 23.9591 23.1544 23.7478 23.252 23.5583C23.3496 23.3689 23.4942 23.2076 23.6719 23.09C26.7916 21.022 28.7041 17.5372 28.7041 13.7251C28.7041 7.52471 23.6777 2.49831 17.4776 2.49831C11.2772 2.49831 6.25079 7.52471 6.25079 13.7251C6.25079 17.5379 8.16468 21.0237 11.285 23.091C11.4508 23.2007 11.5879 23.3484 11.685 23.5219C11.7821 23.6953 11.8363 23.8894 11.8432 24.0881L11.9733 27.8762C11.9809 28.1003 12.1646 28.2779 12.389 28.2779H16.2301V19.8333L13.2427 16.6593C12.7706 16.1575 12.7945 15.3681 13.2963 14.8957C13.7981 14.4237 14.5875 14.4476 15.0599 14.9494L17.5299 17.5741L20.3633 14.8974C20.8644 14.4243 21.6538 14.4469 22.1269 14.9477C22.6 15.4484 22.5774 16.2378 22.0767 16.7113L18.7251 19.8764V28.2783H18.7247ZM31.1987 13.7255C31.2021 18.0803 29.1355 22.1776 25.6312 24.7627L25.734 27.7628C25.7474 28.1533 25.6821 28.5424 25.5419 28.907C25.4017 29.2717 25.1896 29.6043 24.9181 29.8853C24.6466 30.1662 24.3214 30.3896 23.9617 30.5421C23.6021 30.6947 23.2154 30.7733 22.8248 30.7732H12.388C10.8195 30.7736 9.53306 29.5302 9.47909 27.9623L9.37047 24.7972C5.83884 22.2145 3.75245 18.1008 3.75586 13.7255C3.75586 6.1471 9.89958 0.00372314 17.4776 0.00372314C25.0553 0.00372314 31.1987 6.1471 31.1987 13.7255ZM13.7352 34.9313C13.0462 34.9313 12.4878 34.3728 12.4878 33.6838C12.4878 32.9952 13.0462 32.4367 13.7352 32.4367H21.2197C21.9086 32.4367 22.4671 32.9952 22.4671 33.6838C22.4671 34.3728 21.9086 34.9313 21.2197 34.9313H13.7352Z" fill="#333333"/>
</g>
</svg>
