<svg width="16" height="16" viewBox="0 0 16 16" fill="none" xmlns="http://www.w3.org/2000/svg">
<mask id="mask0_94_8919" style="mask-type:alpha" maskUnits="userSpaceOnUse" x="0" y="0" width="16" height="16">
<rect width="16" height="16" fill="#D9D9D9"/>
</mask>
<g mask="url(#mask0_94_8919)">
<path d="M7.82186 1.34907C7.89609 1.20362 8.10391 1.20362 8.17814 1.34907L10.3519 5.60859C10.381 5.66553 10.4355 5.70515 10.4986 5.71519L15.2214 6.46631C15.3827 6.49196 15.4469 6.68962 15.3315 6.80516L11.9522 10.1888C11.907 10.234 11.8862 10.2981 11.8962 10.3613L12.6412 15.085C12.6667 15.2463 12.4985 15.3685 12.353 15.2944L8.09068 13.1261C8.0337 13.0971 7.9663 13.0971 7.90932 13.1261L3.64702 15.2944C3.50147 15.3685 3.33333 15.2463 3.35878 15.085L4.10384 10.3613C4.1138 10.2981 4.09297 10.234 4.04779 10.1888L0.668486 6.80516C0.553092 6.68962 0.617315 6.49196 0.778584 6.46631L5.50136 5.71519C5.56449 5.70515 5.61902 5.66553 5.64808 5.60859L7.82186 1.34907Z" stroke="black" stroke-width="1.1"/>
</g>
</svg>
