<svg width="16" height="16" viewBox="0 0 16 16" fill="none" xmlns="http://www.w3.org/2000/svg">
<path d="M14 3.5C14 3.35082 14.0593 3.20774 14.1648 3.10225C14.2702 2.99676 14.4133 2.9375 14.5625 2.9375C14.7117 2.9375 14.8548 2.99676 14.9602 3.10225C15.0657 3.20774 15.125 3.35082 15.125 3.5V13.4375C15.125 14.5766 14.2016 15.5 13.0625 15.5H3.0625C1.92344 15.5 1 14.5766 1 13.4375V2.5625C1 1.42344 1.92344 0.5 3.0625 0.5H14.5625C14.7117 0.5 14.8548 0.559263 14.9602 0.664752C15.0657 0.770242 15.125 0.913316 15.125 1.0625C15.125 1.21168 15.0657 1.35476 14.9602 1.46025C14.8548 1.56574 14.7117 1.625 14.5625 1.625H3.0625C2.93939 1.625 2.81748 1.64925 2.70373 1.69636C2.58999 1.74348 2.48664 1.81253 2.39959 1.89959C2.31253 1.98664 2.24348 2.08999 2.19636 2.20373C2.14925 2.31748 2.125 2.43939 2.125 2.5625V13.4375C2.125 13.5606 2.14925 13.6825 2.19636 13.7963C2.24348 13.91 2.31253 14.0134 2.39959 14.1004C2.48664 14.1875 2.58999 14.2565 2.70373 14.3036C2.81748 14.3508 2.93939 14.375 3.0625 14.375H13.0625C13.1856 14.375 13.3075 14.3508 13.4213 14.3036C13.535 14.2565 13.6384 14.1875 13.7254 14.1004C13.8125 14.0134 13.8815 13.91 13.9286 13.7963C13.9757 13.6825 14 13.5606 14 13.4375V3.5ZM5.5625 6.6875C5.41332 6.6875 5.27024 6.62824 5.16475 6.52275C5.05926 6.41726 5 6.27418 5 6.125C5 5.97582 5.05926 5.83274 5.16475 5.72725C5.27024 5.62176 5.41332 5.5625 5.5625 5.5625H10.5625C10.7117 5.5625 10.8548 5.62176 10.9602 5.72725C11.0657 5.83274 11.125 5.97582 11.125 6.125C11.125 6.27418 11.0657 6.41726 10.9602 6.52275C10.8548 6.62824 10.7117 6.6875 10.5625 6.6875H5.5625ZM5.5625 9.6875C5.41332 9.6875 5.27024 9.62824 5.16475 9.52275C5.05926 9.41726 5 9.27418 5 9.125C5 8.97582 5.05926 8.83274 5.16475 8.72725C5.27024 8.62176 5.41332 8.5625 5.5625 8.5625H8.3125C8.46168 8.5625 8.60476 8.62176 8.71025 8.72725C8.81574 8.83274 8.875 8.97582 8.875 9.125C8.875 9.27418 8.81574 9.41726 8.71025 9.52275C8.60476 9.62824 8.46168 9.6875 8.3125 9.6875H5.5625Z" fill="black"/>
</svg>
