<svg width="35" height="35" viewBox="0 0 35 35" fill="none" xmlns="http://www.w3.org/2000/svg">
<g id="Frame">
<path id="Vector" d="M17.4788 0.0175171L31.9849 4.11506C32.5964 4.28817 33.0184 4.84675 33.0177 5.4825V18.1073C32.9437 22.236 31.5161 25.8411 28.7601 28.8652C25.9989 31.8917 22.3172 33.8901 17.756 34.8536L17.4501 34.9182L17.1442 34.8417C12.3771 33.6152 8.71964 31.6312 6.19747 28.8652C3.65379 26.075 2.23821 22.4558 1.94184 18.0595L1.93945 18.0117V5.48489C1.93945 4.84914 2.36249 4.28953 2.97229 4.11745L17.4788 0.0175171ZM17.4788 2.81215L4.62927 6.44329V17.923L4.63405 17.9923C4.90412 21.717 6.06841 24.698 8.12418 26.9832L8.18632 27.0549C10.2592 29.3262 13.331 31.0258 17.431 32.1351L17.5075 32.1543L17.56 32.1423C21.3803 31.2744 24.4164 29.6034 26.7019 27.1314L26.7736 27.0526C29.1114 24.4874 30.2876 21.4729 30.3283 17.954V6.44329L17.4788 2.80976V2.81215ZM25.7934 11.3992C26.2553 11.8598 26.2625 12.6055 25.8101 13.0753L25.7957 13.0896L16.6515 22.279C16.1895 22.7433 15.4404 22.7498 14.9706 22.2933L14.9563 22.279L9.16179 16.4531C8.7053 15.9867 8.70735 15.2407 9.16589 14.7767C9.62478 14.3127 10.3708 14.3024 10.8423 14.7534L15.8054 19.7401L24.1005 11.404C24.2112 11.2923 24.3428 11.2036 24.4878 11.1429C24.6328 11.0822 24.7884 11.0507 24.9456 11.0503C25.2635 11.0496 25.5684 11.1749 25.7934 11.3992Z" fill="#222222"/>
</g>
</svg>
