<svg t="1752648090330" class="icon" viewBox="0 0 1024 1024" version="1.1"
    xmlns="http://www.w3.org/2000/svg" p-id="6468" width="256" height="256">
    <path
        d="M961.54566 651.457208c-1.207547 6.240604-4.34717 12.471547-9.718339 18.016603L710.945811 917.532981c-21.900075 22.556981-56.445585 8.172679-56.445585-23.011019V657.002264a43.568302 43.568302 0 0 1 43.539321-43.568302h206.790038V125.546264C904.829585 88.237887 874.515321 57.962264 837.12 57.962264H180.388226c-37.38566 0-67.709585 30.294943-67.709584 67.622642v772.830188c0 37.356679 30.304604 67.622642 67.719245 67.622642h289.714717a28.981132 28.981132 0 0 1 0 57.962264h-289.714717c-69.409811 0-125.681509-56.204075-125.68151-125.584906V125.584906c0-69.361509 56.300679-125.584906 125.68151-125.584906h656.722113c69.390491 0 125.681509 56.204075 125.681509 125.546264v517.477434a28.981132 28.981132 0 0 1-1.255849 8.43351zM217.358491 241.509434c0-16.007245 12.886943-28.981132 29.010113-28.981132h405.677887A29.010113 29.010113 0 0 1 681.056604 241.509434c0 16.007245-12.886943 28.981132-29.010113 28.981132H246.368604A29.010113 29.010113 0 0 1 217.358491 241.509434z m0 144.90566c0-16.007245 12.886943-28.981132 29.010113-28.981132h405.677887A29.010113 29.010113 0 0 1 681.056604 386.415094c0 16.007245-12.886943 28.981132-29.010113 28.981132H246.368604A29.010113 29.010113 0 0 1 217.358491 386.415094z m0 144.905661c0-16.007245 12.886943-28.981132 29.010113-28.981132h405.677887A29.010113 29.010113 0 0 1 681.056604 531.320755c0 16.007245-12.886943 28.981132-29.010113 28.981132H246.368604A29.010113 29.010113 0 0 1 217.358491 531.320755z m0 144.90566c0-16.007245 13.012528-28.981132 28.981132-28.981132h231.849056c16.007245 0 28.981132 13.012528 28.981132 28.981132 0 16.007245-13.012528 28.981132-28.981132 28.981132H246.339623c-16.007245 0-28.981132-13.012528-28.981132-28.981132z m495.104-4.830189v161.366944L869.153811 671.396226h-156.69132z"
        fill="#333333" p-id="6469"></path>
</svg>