<svg t="1752647851192" class="icon" viewBox="0 0 1024 1024" version="1.1"
    xmlns="http://www.w3.org/2000/svg" p-id="5017" width="256" height="256">
    <path
        d="M96 416h832c0.32 0 0.576-0.192 0.896-0.192a30.656 30.656 0 0 0 30.976-30.976C959.808 384.576 960 384.32 960 384a31.424 31.424 0 0 0-14.912-26.368l-188.48-188.48a30.72 30.72 0 1 0-43.456 43.456L852.544 352H96a32 32 0 0 0 0 64zM928 608h-832c-0.32 0-0.576 0.192-0.896 0.192a30.528 30.528 0 0 0-30.976 30.976C64.192 639.424 64 639.68 64 640c0 11.264 6.144 20.672 14.912 26.368l188.48 188.48a30.72 30.72 0 1 0 43.456-43.456L171.456 672H928a32 32 0 0 0 0-64z"
        fill="#333333" p-id="5018"></path>
</svg>