<svg width="32" height="32" viewBox="0 0 32 32" fill="none" xmlns="http://www.w3.org/2000/svg">
<path d="M11.0645 19.3616C11.0645 20.3153 11.2523 21.2597 11.6173 22.1408C11.9822 23.0219 12.5172 23.8225 13.1916 24.4969C13.8659 25.1713 14.6665 25.7062 15.5477 26.0712C16.4288 26.4361 17.3731 26.624 18.3269 26.624C19.2806 26.624 20.2249 26.4361 21.1061 26.0712C21.9872 25.7062 22.7878 25.1713 23.4621 24.4969C24.1365 23.8225 24.6715 23.0219 25.0364 22.1408C25.4014 21.2597 25.5893 20.3153 25.5893 19.3616C25.5893 18.4079 25.4014 17.4635 25.0364 16.5824C24.6715 15.7013 24.1365 14.9007 23.4621 14.2263C22.7878 13.5519 21.9872 13.017 21.1061 12.652C20.2249 12.287 19.2806 12.0992 18.3269 12.0992C17.3731 12.0992 16.4288 12.287 15.5477 12.652C14.6665 13.017 13.8659 13.5519 13.1916 14.2263C12.5172 14.9007 11.9822 15.7013 11.6173 16.5824C11.2523 17.4635 11.0645 18.4079 11.0645 19.3616Z" fill="#79F138"/>
<path d="M16.1807 26.816C13.9224 26.8169 11.7205 26.1106 9.88397 24.7964C8.04746 23.4821 6.66854 21.6258 5.94072 19.488L5.64632 18.6208H3.40632L1.91992 23.3296L4.35992 24.1008L4.73432 22.9152C6.24709 25.4124 8.53518 27.3461 11.2495 28.4215C13.9639 29.4969 16.9555 29.6549 19.7681 28.8714C22.5806 28.0878 25.0596 26.4058 26.827 24.0819C28.5943 21.7579 29.553 18.9196 29.5567 16H26.9967C26.9933 18.8675 25.8527 21.6167 23.825 23.6443C21.7974 25.672 19.0483 26.8126 16.1807 26.816ZM16.1807 5.3104C18.424 5.31003 20.612 6.00623 22.4426 7.30285C24.2731 8.59947 25.6559 10.4325 26.3999 12.5488L26.6991 13.4048H28.8527L30.3999 8.752L27.9727 7.9392L27.5791 9.12C26.0535 6.63794 23.7593 4.7218 21.0451 3.66275C18.331 2.6037 15.3453 2.45965 12.5418 3.2525C9.73832 4.04535 7.2703 5.73175 5.51282 8.05541C3.75533 10.3791 2.80447 13.213 2.80472 16.1264H5.36472C5.36811 13.2589 6.50874 10.5097 8.5364 8.48208C10.5641 6.45442 13.3132 5.31379 16.1807 5.3104Z" fill="#333333"/>
<path d="M20.8053 15.776V13.216H19.0821L20.5045 11.8304L18.7173 9.99683L15.9349 12.7088L13.1541 9.99683L11.3669 11.8304L12.7893 13.216H11.0645V15.776H14.6549V17.2256H11.0645V19.7856H14.6549V22.0016H17.2149V19.7856H20.8053V17.2256H17.2149V15.776H20.8053Z" fill="#333333"/>
</svg>
